<mxfile host="app.diagrams.net" modified="2022-08-17T06:22:53.167Z" agent="5.0 (Windows NT 10.0; Win64; x64) AppleWebKit/537.36 (KHTML, like Gecko) Chrome/103.0.0.0 Safari/537.36" etag="V9ZM3cs9WZm-NnvCh6fd" version="20.2.4" type="github">
  <diagram id="Xh-oy2ZhWTWN3mJ4Ds7N" name="第 1 页">
    <mxGraphModel dx="981" dy="526" grid="0" gridSize="10" guides="1" tooltips="1" connect="1" arrows="1" fold="1" page="1" pageScale="1" pageWidth="827" pageHeight="1169" math="0" shadow="0">
      <root>
        <mxCell id="0" />
        <mxCell id="1" parent="0" />
        <mxCell id="z4K8eBhoTlLAMTzDAgO6-1" value="Nasl" style="rounded=1;whiteSpace=wrap;html=1;fillColor=#dae8fc;strokeColor=#6c8ebf;fontSize=15;" vertex="1" parent="1">
          <mxGeometry x="273" y="54" width="72" height="25" as="geometry" />
        </mxCell>
        <mxCell id="z4K8eBhoTlLAMTzDAgO6-3" value="view" style="rounded=1;whiteSpace=wrap;html=1;fillColor=#dae8fc;strokeColor=#6c8ebf;fontSize=15;" vertex="1" parent="1">
          <mxGeometry x="187" y="114" width="72" height="25" as="geometry" />
        </mxCell>
        <mxCell id="z4K8eBhoTlLAMTzDAgO6-4" value="view" style="rounded=1;whiteSpace=wrap;html=1;fillColor=#dae8fc;strokeColor=#6c8ebf;fontSize=15;" vertex="1" parent="1">
          <mxGeometry x="273" y="114" width="72" height="25" as="geometry" />
        </mxCell>
        <mxCell id="z4K8eBhoTlLAMTzDAgO6-5" value="view" style="rounded=1;whiteSpace=wrap;html=1;fillColor=#dae8fc;strokeColor=#6c8ebf;fontSize=15;" vertex="1" parent="1">
          <mxGeometry x="363" y="114" width="72" height="25" as="geometry" />
        </mxCell>
      </root>
    </mxGraphModel>
  </diagram>
</mxfile>
